<svg id="Layer_3" enable-background="new 0 0 64 64" height="512" viewBox="0 0 64 64" width="512" xmlns="http://www.w3.org/2000/svg"><g><path d="m61.658 57.317-11.764-23.528c-.548-1.096-1.668-1.789-2.894-1.789s-2.346.693-2.894 1.789l-11.764 23.528c-.225.449-.342.945-.342 1.447 0 1.787 1.449 3.236 3.236 3.236h23.528c1.787 0 3.236-1.449 3.236-3.236 0-.502-.117-.998-.342-1.447zm-12.658 1.683h-4v-4h4zm0-7h-4v-14h4z" fill="#f4b2b0"/><g fill="#b3404a"><path d="m5 5h2v2h-2z"/><path d="m9 5h2v2h-2z"/><path d="m13 5h2v2h-2z"/><path d="m50.789 33.342c-.568-1.137-1.592-1.927-2.789-2.215v-29.127c0-.553-.447-1-1-1h-45c-.553 0-1 .447-1 1v45c0 .553.447 1 1 1h33.882l-4.435 8.869c-.293.585-.447 1.24-.447 1.895 0 2.336 1.9 4.236 4.236 4.236h23.527c2.337 0 4.237-1.9 4.237-4.236 0-.654-.154-1.31-.447-1.895zm-4.789-30.342v6h-43v-6zm-43 43v-35h43v20.126c-1.197.288-2.221 1.078-2.789 2.215l-6.329 12.659zm55.764 15h-23.528c-1.233 0-2.236-1.003-2.236-2.236 0-.345.082-.691.236-1l11.764-23.528c.381-.762 1.147-1.236 2-1.236s1.619.474 2 1.236l11.764 23.527c.154.309.236.655.236 1 0 1.234-1.003 2.237-2.236 2.237z"/><path d="m49 37h-4c-.553 0-1 .447-1 1v14c0 .553.447 1 1 1h4c.553 0 1-.447 1-1v-14c0-.553-.447-1-1-1zm-1 14h-2v-12h2z"/><path d="m49 54h-4c-.553 0-1 .447-1 1v4c0 .553.447 1 1 1h4c.553 0 1-.447 1-1v-4c0-.553-.447-1-1-1zm-1 4h-2v-2h2z"/><path d="m5 13h2v2h-2z"/><path d="m9 13h35v2h-35z"/><path d="m42 17h2v2h-2z"/><path d="m5 17h35v2h-35z"/><path d="m5 21h25v2h-25z"/><path d="m32 21h2v2h-2z"/><path d="m5 25h25v2h-25z"/><path d="m32 25h2v2h-2z"/></g></g></svg>