<?xml version="1.0" encoding="iso-8859-1"?>
<!-- Generator: Adobe Illustrator 19.0.0, SVG Export Plug-In . SVG Version: 6.00 Build 0)  -->
<svg version="1.1" id="Capa_1" xmlns="http://www.w3.org/2000/svg" xmlns:xlink="http://www.w3.org/1999/xlink" x="0px" y="0px"
	 viewBox="0 0 512 512" style="enable-background:new 0 0 512 512;" xml:space="preserve">
<g>
	<g>
		<g>
			<path d="M472,83H351V60c0-33.084-26.916-60-60-60h-70c-33.084,0-60,26.916-60,60v23H40c-11.046,0-20,8.954-20,20s8.954,20,20,20
				h20.712l24.374,315.987c0.007,0.092,0.015,0.185,0.023,0.278c1.816,19.924,10.954,38.326,25.73,51.816
				C125.615,504.571,144.771,512,164.778,512h182.444c41.667,0,75.917-31.032,79.669-72.183
				c1.003-11.001-7.101-20.731-18.101-21.734c-11.011-1.003-20.731,7.101-21.734,18.101C385.195,456.603,368.07,472,347.222,472
				H164.778c-20.777,0-37.875-15.571-39.823-36.242L100.831,123h310.338l-17.082,221.462c-0.849,11.013,7.39,20.629,18.403,21.479
				c0.524,0.04,1.043,0.06,1.56,0.06c10.347,0,19.11-7.974,19.919-18.463L451.288,123H472c11.046,0,20-8.954,20-20
				S483.046,83,472,83z M311,83H201V60c0-11.028,8.972-20,20-20h70c11.028,0,20,8.972,20,20V83z"/>
			<path d="M165.127,163.019c-11.035,0.482-19.59,9.818-19.108,20.854l10,228.933c0.469,10.738,9.322,19.128,19.966,19.128
				c0.294,0,0.591-0.006,0.888-0.02c11.035-0.482,19.59-9.818,19.108-20.854l-10-228.934
				C185.499,171.092,176.145,162.523,165.127,163.019z"/>
			<path d="M326.019,182.127l-10,228.934c-0.482,11.035,8.073,20.372,19.108,20.854c0.297,0.013,0.593,0.02,0.888,0.02
				c10.643,0,19.497-8.39,19.966-19.128l10-228.933c0.482-11.035-8.073-20.372-19.108-20.854
				C335.856,162.527,326.501,171.092,326.019,182.127z"/>
			<path d="M236,183v228.933c0,11.046,8.954,20,20,20c11.046,0,20-8.954,20-20V183c0-11.046-8.954-20-20-20S236,171.954,236,183z"/>
		</g>
	</g>
</g>
<g>
</g>
<g>
</g>
<g>
</g>
<g>
</g>
<g>
</g>
<g>
</g>
<g>
</g>
<g>
</g>
<g>
</g>
<g>
</g>
<g>
</g>
<g>
</g>
<g>
</g>
<g>
</g>
<g>
</g>
</svg>
